<svg id="Layer_1" data-name="Layer 1" xmlns="http://www.w3.org/2000/svg" viewBox="0 0 283.46 283.46"><defs><style>.cls-1{fill:#2797d4;}.cls-2{fill:#c54d4d;}.cls-3{fill:#0680ae;}.cls-4,.cls-7{fill:none;stroke-linecap:round;stroke-linejoin:round;}.cls-4{stroke:#231f20;stroke-width:4.53px;}.cls-5{fill:#f04e4b;}.cls-6{fill:#c42d4d;}.cls-7{stroke:#fff;stroke-width:7.55px;}.cls-8{fill:#0777b1;}.cls-9{fill:#c53c4d;}.cls-10{fill:#e0c023;}.cls-11{fill:#faa31d;}.cls-12{fill:#e18538;}.cls-13{fill:#e19826;}.cls-14{fill:#0e85ac;}</style></defs><title>logo QG</title><path class="cls-1" d="M99.72,139.36l40.6,65.19s12.94,15.86,1.3,18.28H32.91s-14.23.22-6.47-11.43l42.07-72Z"/><circle class="cls-2" cx="193.75" cy="61.85" r="6.34"/><circle class="cls-3" cx="78.36" cy="64.8" r="6.34"/><path class="cls-4" d="M167.67,72h39.48a0,0,0,0,1,0,0V208.37a19.74,19.74,0,0,1-19.74,19.74h0a19.74,19.74,0,0,1-19.74-19.74V72A0,0,0,0,1,167.67,72Z"/><path class="cls-5" d="M175.33,108.8H199.5a0,0,0,0,1,0,0v100a11.08,11.08,0,0,1-11.08,11.08h-2a11.08,11.08,0,0,1-11.08-11.08v-100a0,0,0,0,1,0,0Z"/><path class="cls-6" d="M183.35,108.8h8.13a8,8,0,0,1,8,8v3.63a0,0,0,0,1,0,0H175.33a0,0,0,0,1,0,0v-3.63A8,8,0,0,1,183.35,108.8Z" transform="translate(374.83 229.25) rotate(180)"/><line class="cls-7" x1="131.91" y1="185.02" x2="85.65" y2="185.02"/><path class="cls-4" d="M85.33,185h49.6L151,210.5s6.72,17.61-8.38,17.61H32.42s-19.24.11-11.9-17.57l45.22-76.47V86.3S49.43,74,66.69,74h38s14.68-2.35-1.72,14l.23,46.79L114.23,153"/><circle class="cls-6" cx="195.11" cy="99.31" r="4.96"/><circle class="cls-8" cx="76.05" cy="102.27" r="4.96"/><circle class="cls-9" cx="182.11" cy="84.89" r="8.5"/><circle class="cls-10" cx="247.81" cy="61.85" r="6.34"/><path class="cls-4" d="M221.73,72h39.48a0,0,0,0,1,0,0V208.37a19.74,19.74,0,0,1-19.74,19.74h0a19.74,19.74,0,0,1-19.74-19.74V72a0,0,0,0,1,0,0Z"/><path class="cls-11" d="M229.38,108.8h24.17a0,0,0,0,1,0,0v100a11.08,11.08,0,0,1-11.08,11.08h-2a11.08,11.08,0,0,1-11.08-11.08v-100A0,0,0,0,1,229.38,108.8Z"/><path class="cls-12" d="M237.4,108.8h8.13a8,8,0,0,1,8,8v3.63a0,0,0,0,1,0,0H229.38a0,0,0,0,1,0,0v-3.63A8,8,0,0,1,237.4,108.8Z" transform="translate(482.94 229.25) rotate(180)"/><circle class="cls-12" cx="249.16" cy="99.31" r="4.96"/><circle class="cls-13" cx="236.17" cy="84.89" r="8.5"/><circle class="cls-14" cx="89.51" cy="87.84" r="8.5"/><polygon class="cls-1" points="100.92 141.3 97.94 135.32 97.94 111.75 70.28 111.75 70.28 135.32 67.37 141.3 100.92 141.3"/><path class="cls-8" d="M70.26,111.76H97.94l-.11,3.62c0,4.43-3.15,8-7.58,8H78a7.75,7.75,0,0,1-7.7-8Z"/><line class="cls-4" x1="165.8" y1="228.11" x2="263.75" y2="228.11"/></svg>