<?xml version="1.0" encoding="UTF-8"?>
<svg version="1.1" viewBox="0 0 964 1160" width="241" height="290" xmlns="http://www.w3.org/2000/svg">
<path transform="translate(0)" d="m0 0h964v1160h-964z" fill="#FDFDFC"/>
<path transform="translate(425,397)" d="m0 0h139l1 2v126l1 13 4 11 8 16 10 18 12 19 15 24 16 26 26 42 15 23 13 22 7 11 13 21 13 22 11 16 2 4-5 1-230 1-11 1-9 4-4 5-2 4v14l4 8 5 4 9 3 235 1 38 1 6 11 14 22 12 19 14 23 30 45 11 21 5 15 2 10v10l-3 10-8 9-8 5-10 3h-660l-15-3-12-5-8-6-6-7-2-6v-10l3-12 9-19 29-49 15-26 10-17 15-26 16-27 10-17 16-28 12-20 10-17 14-24 15-26 9-15 17-29 16-27 8-14 14-24 17-29 10-19 8-18 2-9 1-136z" fill="#2097D2"/>
<path transform="translate(609,158)" d="m0 0h11l15 3 10 6 6 7 3 7v15l-4 12-9 16-11 14-9 11-12 13v266l3 7 10 18 12 19 8 13 13 22 13 21 5 7 3 7-1 9-1 2h-2v2l-7 4-8-1-6-4-7-11-6-10-11-17-5-9-6-9-5-9-6-9-5-9-8-13-9-15-1-3-2-206v-81l4-7 5-5 6-5 7-8 10-12 10-15 4-10v-3l-8-2-17 1-238 1-15 3-4 2 3 7 6 9 12 13 12 11 8 6v297l-3 7-12 20-7 11-6 11-11 18-5 9-16 27-11 18-6 11-10 16-6 11-13 22-6 10-5 9-8 13-17 29-11 18-6 10-6 11-8 13-6 10-5 9-7 11-6 11-8 13-9 15-6 11-18 30-7 12-12 20-13 22-6 16-2 12v19l3 10 6 9 8 7 13 6 14 4 20 2h667l17-3 10-7 6-7 3-7 1-7v-27l-2-8-2-10-4-11-10-15-6-10-6-9-8-13-7-11-11-18-7-10-6-11-4-5-4-7-7-11-8-13-5-8h-290l-8-3-5-7v-9l4-6 4-3h309l5 5 11 18 24 38 9 14 11 17 12 20 4 5 5 9 13 20 8 13 3 9 4 14 3 17v27l-4 18-7 13-8 10-11 8-12 6-15 3h-689l-18-3-15-5-10-5-8-5-11-9-10-13-5-12-2-7v-34l5-19 6-15 4-6 5-9 7-11 6-11 12-20 10-17 8-13 5-9 11-18 5-9 12-20 8-14 16-26 6-11 5-9 10-16 6-10 5-9 8-13 5-9 7-12 10-16 6-11 7-11 5-9 11-18 5-10h2l2-6 6-10 5-9 4-7 7-11 7-12 5-8 5-9 6-10 6-11 7-11v-275l-7-8-12-12-9-10-6-8-5-11-2-7v-10l4-11 9-8 11-6 12-3 251-1z" fill="#020406"/>
<path transform="translate(425,397)" d="m0 0h139l1 2v11l-1 3-1 37-6-1-8 6-6 7-11 4-22 2h-22l-56-1-12-5-10-8-6-9-3-3-1-7v-37z" fill="#0B76AC"/>
<path transform="translate(510,203)" d="m0 0 12 1 12 4 9 5 10 9 7 11 4 10 1 6v17l-5 13-6 9-9 9-14 7-14 4h-8l-17-6-11-7-8-8-6-10-3-9-1-5v-13l3-13 7-13 11-11 14-7z" fill="#0982A9"/>
<path transform="translate(438,80)" d="m0 0h16l12 4 8 6 6 7 4 8 1 4v18l-4 10-7 8-7 6-8 4-5 1h-14l-10-4-9-6-8-11-4-10v-14l5-13 7-9 9-6z" fill="#0982A9"/>
<path transform="translate(425,312)" d="m0 0h15l10 4 5 5 5 6 4 13-1 9-5 10-7 7-10 5-3 1h-11l-11-6-7-7-4-8-1-3v-13l4-10 7-8z" fill="#0B77AD"/>
<path transform="translate(438,80)" d="m0 0h16l12 4 8 6 6 7 4 8 1 4v18l-2 6h-1v-8l-2-8v-12h-2l-2-6-2-1-1-3h-2l-3-3-2-1v-2l-15-2-16 1-6 3-6 5-6 11-2 4-3 1 1 12 3 5 2 7v2l2 2 2 3 3-1 6 2 8 4h17l6-3 7-3 5 2-4 5-11 6-5 1h-14l-10-4-9-6-8-11-4-10v-14l5-13 7-9 9-6z" fill="#0E7BB1"/>
<path transform="translate(419,141)" d="m0 0 3 2 3-1 6 2 8 4h17l6-3 7-3 5 2-4 5-11 6-5 1h-14l-10-4-9-6z" fill="#0D7AB0"/>
<path transform="translate(487,211)" d="m0 0 4 1 1 3-5 4-5 3-1 3h-2l-2 4-8 12-2 17 1 13 1 2v6l-3-4-3-12v-13l3-13 7-13 11-11z" fill="#0F7CB3"/>
<path transform="translate(630,860)" d="m0 0h131v2l-2 1h-55l-60-1-14-1z" fill="#097FA9"/>
<path transform="translate(535,210)" d="m0 0 5 1 9 7 7 8 7 14 2 9v17h-1v-14h-2l-2-10v-2h-2l-5-9-3-3-3-5-5-4-5-5z" fill="#0F7DB4"/>
<path transform="translate(961,1082)" d="m0 0h3v25l-2-1v-2h-2l-4-6v-7l3-7h2z" fill="#041018"/>
<path transform="translate(719,860)" d="m0 0h42v2l-2 1-44-1z" fill="#1282BA"/>
<path transform="translate(410,117)" d="m0 0 2 1 2 9 3 3 1 6v2l2 2-2 2-6-9-3-8v-7z" fill="#0F7CB3"/>
<path transform="translate(560,440)" d="m0 0h3v10l-6-1-6 5-2-1 1-2h2l2-5 4-4h2z" fill="#0982A9"/>
<path transform="translate(510,203)" d="m0 0 12 1 3 1v2l-12 1-10-2 1-2z" fill="#107EB5"/>
<path transform="translate(407,447)" d="m0 0 4 2 2 5 8 4 1 2 5 2 2 3-9-3-10-8-3-5z" fill="#0982A9"/>
<path transform="translate(704,773)" d="m0 0 3 1 9 16-1 3-7-11-3-5z" fill="#1181B7"/>
<path transform="translate(547,434)" d="m0 0 5 2v3h-6v-4z" fill="#0982A9"/>
</svg>
